<svg width="18" height="10" viewBox="0 0 18 10" fill="none" xmlns="http://www.w3.org/2000/svg">
<path d="M16.4972 0.989L9.00024 8.297L1.50324 0.989C1.3693 0.858155 1.18948 0.784901 1.00224 0.784901C0.814992 0.784901 0.635177 0.858155 0.501236 0.989C0.43638 1.05255 0.384855 1.12839 0.34968 1.2121C0.314505 1.29581 0.296387 1.3857 0.296387 1.4765C0.296387 1.5673 0.314505 1.65719 0.34968 1.74089C0.384855 1.8246 0.43638 1.90045 0.501236 1.964L8.47674 9.74C8.6168 9.87652 8.80465 9.95293 9.00024 9.95293C9.19582 9.95293 9.38368 9.87652 9.52374 9.74L17.4992 1.9655C17.5646 1.90191 17.6165 1.82587 17.6519 1.74188C17.6874 1.6579 17.7056 1.56766 17.7056 1.4765C17.7056 1.38534 17.6874 1.2951 17.6519 1.21111C17.6165 1.12713 17.5646 1.05109 17.4992 0.987499C17.3653 0.856654 17.1855 0.783401 16.9982 0.783401C16.811 0.783401 16.6312 0.856654 16.4972 0.987499V0.989Z" fill="white"/>
</svg>
