<svg width="21" height="20" viewBox="0 0 21 20" fill="none" xmlns="http://www.w3.org/2000/svg">
<path d="M20.0001 10C20.0019 11.2145 19.7638 12.4174 19.2996 13.5397C18.8355 14.662 18.1542 15.6816 17.2951 16.54C16.4357 17.3995 15.4153 18.0813 14.2923 18.5463C13.1692 19.0113 11.9656 19.2504 10.7501 19.25C9.44186 19.2532 8.14802 18.9771 6.9551 18.44L3.0881 19.012C2.8961 19.0433 2.69935 19.0274 2.51494 18.9654C2.33052 18.9034 2.16403 18.7974 2.0299 18.6565C1.89578 18.5155 1.7981 18.344 1.74533 18.1568C1.69256 17.9695 1.6863 17.7722 1.7271 17.582L2.2641 13.659C1.75454 12.5068 1.49418 11.2599 1.5001 10C1.49844 8.78552 1.73652 7.58265 2.20071 6.46037C2.66489 5.33809 3.34604 4.31848 4.2051 3.46C5.06449 2.60042 6.08486 1.91864 7.2079 1.45364C8.33093 0.98864 9.5346 0.749538 10.7501 0.750001C13.2047 0.750164 15.5588 1.72491 17.2951 3.46C18.1538 4.31875 18.8347 5.33841 19.2989 6.46063C19.763 7.58284 20.0013 8.78558 20.0001 10Z" stroke="#F3F3F3" stroke-width="1.5" stroke-linecap="round" stroke-linejoin="round"/>
</svg>
