<svg width="4" height="16" viewBox="0 0 4 16" fill="none" xmlns="http://www.w3.org/2000/svg">
<path d="M0.799805 14.3C0.799805 13.9022 0.95784 13.5206 1.23914 13.2393C1.52045 12.958 1.90198 12.8 2.2998 12.8C2.69763 12.8 3.07916 12.958 3.36047 13.2393C3.64177 13.5206 3.7998 13.9022 3.7998 14.3C3.7998 14.6978 3.64177 15.0794 3.36047 15.3607C3.07916 15.642 2.69763 15.8 2.2998 15.8C1.90198 15.8 1.52045 15.642 1.23914 15.3607C0.95784 15.0794 0.799805 14.6978 0.799805 14.3ZM0.799805 8.3C0.799805 7.90218 0.95784 7.52065 1.23914 7.23934C1.52045 6.95804 1.90198 6.8 2.2998 6.8C2.69763 6.8 3.07916 6.95804 3.36047 7.23934C3.64177 7.52065 3.7998 7.90218 3.7998 8.3C3.7998 8.69783 3.64177 9.07936 3.36047 9.36066C3.07916 9.64197 2.69763 9.8 2.2998 9.8C1.90198 9.8 1.52045 9.64197 1.23914 9.36066C0.95784 9.07936 0.799805 8.69783 0.799805 8.3ZM0.799805 2.3C0.799805 1.90218 0.95784 1.52065 1.23914 1.23934C1.52045 0.958038 1.90198 0.800003 2.2998 0.800003C2.69763 0.800003 3.07916 0.958038 3.36047 1.23934C3.64177 1.52065 3.7998 1.90218 3.7998 2.3C3.7998 2.69783 3.64177 3.07936 3.36047 3.36066C3.07916 3.64197 2.69763 3.8 2.2998 3.8C1.90198 3.8 1.52045 3.64197 1.23914 3.36066C0.95784 3.07936 0.799805 2.69783 0.799805 2.3Z" fill="white"/>
</svg>
