<svg width="19" height="18" viewBox="0 0 19 18" fill="none" xmlns="http://www.w3.org/2000/svg">
<path d="M17.3752 16.5L13.5751 12.8809M13.5751 12.8809C14.2251 12.2618 14.7407 11.5269 15.0925 10.718C15.4443 9.90915 15.6254 9.04222 15.6254 8.16672C15.6254 7.29121 15.4443 6.42429 15.0925 5.61543C14.7407 4.80657 14.2251 4.07162 13.5751 3.45255C12.925 2.83348 12.1533 2.3424 11.304 2.00736C10.4547 1.67232 9.54446 1.49988 8.62518 1.49988C7.7059 1.49988 6.79563 1.67232 5.94633 2.00736C5.09703 2.3424 4.32533 2.83348 3.67531 3.45255C2.36252 4.70282 1.625 6.39856 1.625 8.16672C1.625 9.93487 2.36252 11.6306 3.67531 12.8809C4.98809 14.1312 6.76862 14.8336 8.62518 14.8336C10.4817 14.8336 12.2623 14.1312 13.5751 12.8809Z" stroke="#F3F3F3" stroke-opacity="0.45" stroke-width="2" stroke-linecap="round" stroke-linejoin="round"/>
</svg>
