<svg width="16" height="20" viewBox="0 0 16 20" fill="none" xmlns="http://www.w3.org/2000/svg">
<path d="M13.752 11.995C14.3484 11.9955 14.9202 12.2328 15.3417 12.6547C15.7632 13.0766 16 13.6486 16 14.245V14.82C16 15.714 15.68 16.579 15.1 17.258C13.53 19.091 11.143 19.996 7.99698 19.996C4.85098 19.996 2.46498 19.091 0.898976 17.256C0.319585 16.5774 0.00118381 15.7143 0.000976562 14.822V14.244C0.00124157 13.6476 0.238274 13.0757 0.659986 12.654C1.0817 12.2323 1.65359 11.9953 2.24998 11.995H13.752ZM13.752 13.495H2.24898C2.05006 13.495 1.8593 13.574 1.71865 13.7147C1.57799 13.8553 1.49898 14.0461 1.49898 14.245V14.822C1.49898 15.357 1.69098 15.875 2.03898 16.282C3.29198 17.751 5.25898 18.496 7.99598 18.496C10.735 18.496 12.702 17.751 13.959 16.283C14.3076 15.8753 14.4991 15.3564 14.499 14.82V14.244C14.4987 14.0456 14.4199 13.8554 14.2797 13.715C14.1395 13.5746 13.9504 13.4955 13.752 13.495ZM7.99698 0C8.65359 -9.78424e-09 9.30376 0.129329 9.91039 0.380602C10.517 0.631876 11.0682 1.00017 11.5325 1.46447C11.9968 1.92876 12.3651 2.47995 12.6164 3.08658C12.8676 3.69321 12.997 4.34339 12.997 5C12.997 5.65661 12.8676 6.30679 12.6164 6.91342C12.3651 7.52004 11.9968 8.07124 11.5325 8.53553C11.0682 8.99983 10.517 9.36812 9.91039 9.6194C9.30376 9.87067 8.65359 10 7.99698 10C6.67089 10 5.39912 9.47322 4.46144 8.53553C3.52376 7.59785 2.99698 6.32608 2.99698 5C2.99698 3.67392 3.52376 2.40215 4.46144 1.46447C5.39912 0.526784 6.67089 0 7.99698 0ZM7.99698 1.5C7.53735 1.5 7.08222 1.59053 6.65758 1.76642C6.23294 1.94231 5.84711 2.20012 5.5221 2.52513C5.1971 2.85013 4.93929 3.23597 4.7634 3.66061C4.58751 4.08525 4.49698 4.54037 4.49698 5C4.49698 5.45963 4.58751 5.91475 4.7634 6.33939C4.93929 6.76403 5.1971 7.14987 5.5221 7.47487C5.84711 7.79988 6.23294 8.05769 6.65758 8.23358C7.08222 8.40947 7.53735 8.5 7.99698 8.5C8.92523 8.5 9.81547 8.13125 10.4718 7.47487C11.1282 6.8185 11.497 5.92826 11.497 5C11.497 4.07174 11.1282 3.1815 10.4718 2.52513C9.81547 1.86875 8.92523 1.5 7.99698 1.5Z" fill="#F3F3F3"/>
</svg>
